<mxfile host="app.diagrams.net" agent="Mozilla/5.0 (Windows NT 10.0; Win64; x64; rv:138.0) Gecko/20100101 Firefox/138.0" version="27.0.1">
  <diagram name="Page-1" id="egBL8m2PtPAUlrRBkeFN">
    <mxGraphModel dx="3354" dy="2748" grid="1" gridSize="10" guides="1" tooltips="1" connect="1" arrows="1" fold="1" page="1" pageScale="1" pageWidth="850" pageHeight="1100" math="0" shadow="0">
      <root>
        <mxCell id="0" />
        <mxCell id="1" parent="0" />
        <mxCell id="If4iOhaDxwaOLvHCRaRI-144" value="" style="rounded=1;whiteSpace=wrap;html=1;fillColor=#6d8764;fontColor=#ffffff;strokeColor=#3A5431;" vertex="1" parent="1">
          <mxGeometry x="-280" y="890" width="1520" height="1450" as="geometry" />
        </mxCell>
        <mxCell id="If4iOhaDxwaOLvHCRaRI-18" value="" style="rounded=1;whiteSpace=wrap;html=1;fillColor=#6d8764;fontColor=#ffffff;strokeColor=#3A5431;" vertex="1" parent="1">
          <mxGeometry x="-30" y="50" width="590" height="780" as="geometry" />
        </mxCell>
        <mxCell id="If4iOhaDxwaOLvHCRaRI-6" style="edgeStyle=orthogonalEdgeStyle;rounded=0;orthogonalLoop=1;jettySize=auto;html=1;entryX=0.5;entryY=0;entryDx=0;entryDy=0;" edge="1" parent="1" source="If4iOhaDxwaOLvHCRaRI-2" target="If4iOhaDxwaOLvHCRaRI-3">
          <mxGeometry relative="1" as="geometry" />
        </mxCell>
        <mxCell id="If4iOhaDxwaOLvHCRaRI-2" value="print intro" style="rounded=0;whiteSpace=wrap;html=1;fillColor=#e51400;fontColor=#ffffff;strokeColor=#B20000;" vertex="1" parent="1">
          <mxGeometry x="230" y="80" width="120" height="60" as="geometry" />
        </mxCell>
        <mxCell id="If4iOhaDxwaOLvHCRaRI-7" style="edgeStyle=orthogonalEdgeStyle;rounded=0;orthogonalLoop=1;jettySize=auto;html=1;entryX=0.5;entryY=0;entryDx=0;entryDy=0;" edge="1" parent="1" source="If4iOhaDxwaOLvHCRaRI-3" target="If4iOhaDxwaOLvHCRaRI-5">
          <mxGeometry relative="1" as="geometry" />
        </mxCell>
        <mxCell id="If4iOhaDxwaOLvHCRaRI-8" value="input = p?" style="edgeLabel;html=1;align=center;verticalAlign=middle;resizable=0;points=[];" vertex="1" connectable="0" parent="If4iOhaDxwaOLvHCRaRI-7">
          <mxGeometry x="-0.2943" relative="1" as="geometry">
            <mxPoint as="offset" />
          </mxGeometry>
        </mxCell>
        <mxCell id="If4iOhaDxwaOLvHCRaRI-100" style="edgeStyle=orthogonalEdgeStyle;rounded=0;orthogonalLoop=1;jettySize=auto;html=1;entryX=0.5;entryY=1;entryDx=0;entryDy=0;" edge="1" parent="1" source="If4iOhaDxwaOLvHCRaRI-3" target="If4iOhaDxwaOLvHCRaRI-14">
          <mxGeometry relative="1" as="geometry" />
        </mxCell>
        <mxCell id="If4iOhaDxwaOLvHCRaRI-101" value="input = q?" style="edgeLabel;html=1;align=center;verticalAlign=middle;resizable=0;points=[];" vertex="1" connectable="0" parent="If4iOhaDxwaOLvHCRaRI-100">
          <mxGeometry x="-0.4903" relative="1" as="geometry">
            <mxPoint as="offset" />
          </mxGeometry>
        </mxCell>
        <mxCell id="If4iOhaDxwaOLvHCRaRI-3" value="selection screen" style="rhombus;whiteSpace=wrap;html=1;fillColor=#0050ef;fontColor=#ffffff;strokeColor=#001DBC;" vertex="1" parent="1">
          <mxGeometry x="250" y="220" width="80" height="80" as="geometry" />
        </mxCell>
        <mxCell id="If4iOhaDxwaOLvHCRaRI-10" style="edgeStyle=orthogonalEdgeStyle;rounded=0;orthogonalLoop=1;jettySize=auto;html=1;" edge="1" parent="1" source="If4iOhaDxwaOLvHCRaRI-5" target="If4iOhaDxwaOLvHCRaRI-9">
          <mxGeometry relative="1" as="geometry" />
        </mxCell>
        <mxCell id="If4iOhaDxwaOLvHCRaRI-5" value="select team 1 name and player names" style="rhombus;whiteSpace=wrap;html=1;fillColor=#0050ef;fontColor=#ffffff;strokeColor=#001DBC;" vertex="1" parent="1">
          <mxGeometry x="237.5" y="400" width="105" height="110" as="geometry" />
        </mxCell>
        <mxCell id="If4iOhaDxwaOLvHCRaRI-13" style="edgeStyle=orthogonalEdgeStyle;rounded=0;orthogonalLoop=1;jettySize=auto;html=1;entryX=0.5;entryY=0;entryDx=0;entryDy=0;" edge="1" parent="1" source="If4iOhaDxwaOLvHCRaRI-9" target="If4iOhaDxwaOLvHCRaRI-12">
          <mxGeometry relative="1" as="geometry" />
        </mxCell>
        <mxCell id="If4iOhaDxwaOLvHCRaRI-9" value="select team 2 name and player names" style="rhombus;whiteSpace=wrap;html=1;fillColor=#0050ef;fontColor=#ffffff;strokeColor=#001DBC;" vertex="1" parent="1">
          <mxGeometry x="237.5" y="570" width="105" height="110" as="geometry" />
        </mxCell>
        <mxCell id="If4iOhaDxwaOLvHCRaRI-20" style="edgeStyle=orthogonalEdgeStyle;rounded=0;orthogonalLoop=1;jettySize=auto;html=1;entryX=0.5;entryY=0;entryDx=0;entryDy=0;" edge="1" parent="1" source="If4iOhaDxwaOLvHCRaRI-12" target="If4iOhaDxwaOLvHCRaRI-19">
          <mxGeometry relative="1" as="geometry" />
        </mxCell>
        <mxCell id="If4iOhaDxwaOLvHCRaRI-12" value="create game (create bingo card and basket for both teams)" style="shape=parallelogram;perimeter=parallelogramPerimeter;whiteSpace=wrap;html=1;fixedSize=1;fillColor=#76608a;fontColor=#ffffff;strokeColor=#432D57;" vertex="1" parent="1">
          <mxGeometry x="230" y="740" width="220" height="60" as="geometry" />
        </mxCell>
        <mxCell id="If4iOhaDxwaOLvHCRaRI-106" style="edgeStyle=orthogonalEdgeStyle;rounded=0;orthogonalLoop=1;jettySize=auto;html=1;entryX=0.5;entryY=1;entryDx=0;entryDy=0;" edge="1" parent="1" source="If4iOhaDxwaOLvHCRaRI-14" target="If4iOhaDxwaOLvHCRaRI-105">
          <mxGeometry relative="1" as="geometry" />
        </mxCell>
        <mxCell id="If4iOhaDxwaOLvHCRaRI-14" value="print outro" style="rounded=0;whiteSpace=wrap;html=1;fillColor=#e51400;fontColor=#ffffff;strokeColor=#B20000;" vertex="1" parent="1">
          <mxGeometry x="40" y="80" width="120" height="60" as="geometry" />
        </mxCell>
        <mxCell id="If4iOhaDxwaOLvHCRaRI-22" style="edgeStyle=orthogonalEdgeStyle;rounded=0;orthogonalLoop=1;jettySize=auto;html=1;entryX=1;entryY=0.5;entryDx=0;entryDy=0;" edge="1" parent="1" source="If4iOhaDxwaOLvHCRaRI-19" target="If4iOhaDxwaOLvHCRaRI-21">
          <mxGeometry relative="1" as="geometry" />
        </mxCell>
        <mxCell id="If4iOhaDxwaOLvHCRaRI-23" value="word correct?" style="edgeLabel;html=1;align=center;verticalAlign=middle;resizable=0;points=[];" vertex="1" connectable="0" parent="If4iOhaDxwaOLvHCRaRI-22">
          <mxGeometry x="-0.0486" y="1" relative="1" as="geometry">
            <mxPoint as="offset" />
          </mxGeometry>
        </mxCell>
        <mxCell id="If4iOhaDxwaOLvHCRaRI-134" style="edgeStyle=orthogonalEdgeStyle;rounded=0;orthogonalLoop=1;jettySize=auto;html=1;entryX=0.5;entryY=0;entryDx=0;entryDy=0;" edge="1" parent="1" source="If4iOhaDxwaOLvHCRaRI-19" target="If4iOhaDxwaOLvHCRaRI-133">
          <mxGeometry relative="1" as="geometry" />
        </mxCell>
        <mxCell id="If4iOhaDxwaOLvHCRaRI-135" value="word incorect?" style="edgeLabel;html=1;align=center;verticalAlign=middle;resizable=0;points=[];" vertex="1" connectable="0" parent="If4iOhaDxwaOLvHCRaRI-134">
          <mxGeometry x="-0.2593" y="2" relative="1" as="geometry">
            <mxPoint as="offset" />
          </mxGeometry>
        </mxCell>
        <mxCell id="If4iOhaDxwaOLvHCRaRI-19" value="team 1 guess word" style="rhombus;whiteSpace=wrap;html=1;fillColor=#0050ef;fontColor=#ffffff;strokeColor=#001DBC;" vertex="1" parent="1">
          <mxGeometry x="223.75" y="900" width="132.5" height="110" as="geometry" />
        </mxCell>
        <mxCell id="If4iOhaDxwaOLvHCRaRI-28" style="edgeStyle=orthogonalEdgeStyle;rounded=0;orthogonalLoop=1;jettySize=auto;html=1;entryX=0.5;entryY=0;entryDx=0;entryDy=0;" edge="1" parent="1" source="If4iOhaDxwaOLvHCRaRI-21" target="If4iOhaDxwaOLvHCRaRI-27">
          <mxGeometry relative="1" as="geometry" />
        </mxCell>
        <mxCell id="If4iOhaDxwaOLvHCRaRI-21" value="correct words team 1 += 1" style="shape=parallelogram;perimeter=parallelogramPerimeter;whiteSpace=wrap;html=1;fixedSize=1;fillColor=#76608a;fontColor=#ffffff;strokeColor=#432D57;" vertex="1" parent="1">
          <mxGeometry x="-50" y="925" width="180" height="55" as="geometry" />
        </mxCell>
        <mxCell id="If4iOhaDxwaOLvHCRaRI-34" style="edgeStyle=orthogonalEdgeStyle;rounded=0;orthogonalLoop=1;jettySize=auto;html=1;" edge="1" parent="1" source="If4iOhaDxwaOLvHCRaRI-27" target="If4iOhaDxwaOLvHCRaRI-33">
          <mxGeometry relative="1" as="geometry" />
        </mxCell>
        <mxCell id="If4iOhaDxwaOLvHCRaRI-27" value="team 1 grab ball from basket" style="shape=parallelogram;perimeter=parallelogramPerimeter;whiteSpace=wrap;html=1;fixedSize=1;fillColor=#76608a;fontColor=#ffffff;strokeColor=#432D57;" vertex="1" parent="1">
          <mxGeometry x="-50" y="1040" width="180" height="55" as="geometry" />
        </mxCell>
        <mxCell id="If4iOhaDxwaOLvHCRaRI-39" style="edgeStyle=orthogonalEdgeStyle;rounded=0;orthogonalLoop=1;jettySize=auto;html=1;entryX=0;entryY=0.5;entryDx=0;entryDy=0;exitX=0;exitY=0.5;exitDx=0;exitDy=0;" edge="1" parent="1" source="If4iOhaDxwaOLvHCRaRI-29" target="If4iOhaDxwaOLvHCRaRI-27">
          <mxGeometry relative="1" as="geometry">
            <Array as="points">
              <mxPoint x="-180" y="1505" />
              <mxPoint x="-180" y="1068" />
            </Array>
          </mxGeometry>
        </mxCell>
        <mxCell id="If4iOhaDxwaOLvHCRaRI-40" value="no" style="edgeLabel;html=1;align=center;verticalAlign=middle;resizable=0;points=[];" vertex="1" connectable="0" parent="If4iOhaDxwaOLvHCRaRI-39">
          <mxGeometry x="-0.8132" y="5" relative="1" as="geometry">
            <mxPoint x="1" as="offset" />
          </mxGeometry>
        </mxCell>
        <mxCell id="If4iOhaDxwaOLvHCRaRI-64" style="edgeStyle=orthogonalEdgeStyle;rounded=0;orthogonalLoop=1;jettySize=auto;html=1;entryX=0;entryY=0;entryDx=0;entryDy=0;" edge="1" parent="1" source="If4iOhaDxwaOLvHCRaRI-29" target="If4iOhaDxwaOLvHCRaRI-45">
          <mxGeometry relative="1" as="geometry" />
        </mxCell>
        <mxCell id="If4iOhaDxwaOLvHCRaRI-65" value="yes" style="edgeLabel;html=1;align=center;verticalAlign=middle;resizable=0;points=[];" vertex="1" connectable="0" parent="If4iOhaDxwaOLvHCRaRI-64">
          <mxGeometry x="-0.6111" y="-1" relative="1" as="geometry">
            <mxPoint as="offset" />
          </mxGeometry>
        </mxCell>
        <mxCell id="If4iOhaDxwaOLvHCRaRI-29" value="ball = red?" style="rhombus;whiteSpace=wrap;html=1;fillColor=#0050ef;fontColor=#ffffff;strokeColor=#001DBC;" vertex="1" parent="1">
          <mxGeometry x="-33.75" y="1450" width="132.5" height="110" as="geometry" />
        </mxCell>
        <mxCell id="If4iOhaDxwaOLvHCRaRI-36" style="edgeStyle=orthogonalEdgeStyle;rounded=0;orthogonalLoop=1;jettySize=auto;html=1;entryX=0.5;entryY=0;entryDx=0;entryDy=0;" edge="1" parent="1" source="If4iOhaDxwaOLvHCRaRI-32" target="If4iOhaDxwaOLvHCRaRI-29">
          <mxGeometry relative="1" as="geometry" />
        </mxCell>
        <mxCell id="If4iOhaDxwaOLvHCRaRI-38" value="no" style="edgeLabel;html=1;align=center;verticalAlign=middle;resizable=0;points=[];" vertex="1" connectable="0" parent="If4iOhaDxwaOLvHCRaRI-36">
          <mxGeometry x="-0.4598" relative="1" as="geometry">
            <mxPoint as="offset" />
          </mxGeometry>
        </mxCell>
        <mxCell id="If4iOhaDxwaOLvHCRaRI-62" style="edgeStyle=orthogonalEdgeStyle;rounded=0;orthogonalLoop=1;jettySize=auto;html=1;entryX=0.5;entryY=0;entryDx=0;entryDy=0;" edge="1" parent="1" source="If4iOhaDxwaOLvHCRaRI-32" target="If4iOhaDxwaOLvHCRaRI-45">
          <mxGeometry relative="1" as="geometry" />
        </mxCell>
        <mxCell id="If4iOhaDxwaOLvHCRaRI-63" value="yes" style="edgeLabel;html=1;align=center;verticalAlign=middle;resizable=0;points=[];" vertex="1" connectable="0" parent="If4iOhaDxwaOLvHCRaRI-62">
          <mxGeometry x="-0.774" y="-3" relative="1" as="geometry">
            <mxPoint as="offset" />
          </mxGeometry>
        </mxCell>
        <mxCell id="If4iOhaDxwaOLvHCRaRI-32" value="team 1 grab 2 balls?" style="rhombus;whiteSpace=wrap;html=1;fillColor=#0050ef;fontColor=#ffffff;strokeColor=#001DBC;" vertex="1" parent="1">
          <mxGeometry x="-26.25" y="1250" width="132.5" height="110" as="geometry" />
        </mxCell>
        <mxCell id="If4iOhaDxwaOLvHCRaRI-35" style="edgeStyle=orthogonalEdgeStyle;rounded=0;orthogonalLoop=1;jettySize=auto;html=1;entryX=0.5;entryY=0;entryDx=0;entryDy=0;" edge="1" parent="1" source="If4iOhaDxwaOLvHCRaRI-33" target="If4iOhaDxwaOLvHCRaRI-32">
          <mxGeometry relative="1" as="geometry" />
        </mxCell>
        <mxCell id="If4iOhaDxwaOLvHCRaRI-33" value="team 1 balls in possession += 1" style="shape=parallelogram;perimeter=parallelogramPerimeter;whiteSpace=wrap;html=1;fixedSize=1;fillColor=#76608a;fontColor=#ffffff;strokeColor=#432D57;" vertex="1" parent="1">
          <mxGeometry x="-70" y="1140" width="220" height="60" as="geometry" />
        </mxCell>
        <mxCell id="If4iOhaDxwaOLvHCRaRI-43" style="edgeStyle=orthogonalEdgeStyle;rounded=0;orthogonalLoop=1;jettySize=auto;html=1;entryX=1;entryY=0.5;entryDx=0;entryDy=0;" edge="1" parent="1" source="If4iOhaDxwaOLvHCRaRI-45" target="If4iOhaDxwaOLvHCRaRI-47">
          <mxGeometry relative="1" as="geometry" />
        </mxCell>
        <mxCell id="If4iOhaDxwaOLvHCRaRI-44" value="word correct?" style="edgeLabel;html=1;align=center;verticalAlign=middle;resizable=0;points=[];" vertex="1" connectable="0" parent="If4iOhaDxwaOLvHCRaRI-43">
          <mxGeometry x="-0.0486" y="1" relative="1" as="geometry">
            <mxPoint as="offset" />
          </mxGeometry>
        </mxCell>
        <mxCell id="If4iOhaDxwaOLvHCRaRI-139" style="edgeStyle=orthogonalEdgeStyle;rounded=0;orthogonalLoop=1;jettySize=auto;html=1;entryX=0.5;entryY=0;entryDx=0;entryDy=0;" edge="1" parent="1" source="If4iOhaDxwaOLvHCRaRI-45" target="If4iOhaDxwaOLvHCRaRI-137">
          <mxGeometry relative="1" as="geometry" />
        </mxCell>
        <mxCell id="If4iOhaDxwaOLvHCRaRI-140" value="word incorrect?" style="edgeLabel;html=1;align=center;verticalAlign=middle;resizable=0;points=[];" vertex="1" connectable="0" parent="If4iOhaDxwaOLvHCRaRI-139">
          <mxGeometry x="-0.5584" y="-2" relative="1" as="geometry">
            <mxPoint as="offset" />
          </mxGeometry>
        </mxCell>
        <mxCell id="If4iOhaDxwaOLvHCRaRI-45" value="team 2 guess word" style="rhombus;whiteSpace=wrap;html=1;fillColor=#0050ef;fontColor=#ffffff;strokeColor=#001DBC;" vertex="1" parent="1">
          <mxGeometry x="183.64" y="1590" width="132.5" height="110" as="geometry" />
        </mxCell>
        <mxCell id="If4iOhaDxwaOLvHCRaRI-46" style="edgeStyle=orthogonalEdgeStyle;rounded=0;orthogonalLoop=1;jettySize=auto;html=1;entryX=0.5;entryY=0;entryDx=0;entryDy=0;" edge="1" parent="1" source="If4iOhaDxwaOLvHCRaRI-47" target="If4iOhaDxwaOLvHCRaRI-49">
          <mxGeometry relative="1" as="geometry" />
        </mxCell>
        <mxCell id="If4iOhaDxwaOLvHCRaRI-47" value="correct words team 2 += 1" style="shape=parallelogram;perimeter=parallelogramPerimeter;whiteSpace=wrap;html=1;fixedSize=1;fillColor=#76608a;fontColor=#ffffff;strokeColor=#432D57;" vertex="1" parent="1">
          <mxGeometry x="-90.11" y="1615" width="180" height="55" as="geometry" />
        </mxCell>
        <mxCell id="If4iOhaDxwaOLvHCRaRI-48" style="edgeStyle=orthogonalEdgeStyle;rounded=0;orthogonalLoop=1;jettySize=auto;html=1;" edge="1" parent="1" source="If4iOhaDxwaOLvHCRaRI-49" target="If4iOhaDxwaOLvHCRaRI-61">
          <mxGeometry relative="1" as="geometry" />
        </mxCell>
        <mxCell id="If4iOhaDxwaOLvHCRaRI-49" value="team 2 grab ball from basket" style="shape=parallelogram;perimeter=parallelogramPerimeter;whiteSpace=wrap;html=1;fixedSize=1;fillColor=#76608a;fontColor=#ffffff;strokeColor=#432D57;" vertex="1" parent="1">
          <mxGeometry x="-90.11" y="1730" width="180" height="55" as="geometry" />
        </mxCell>
        <mxCell id="If4iOhaDxwaOLvHCRaRI-52" style="edgeStyle=orthogonalEdgeStyle;rounded=0;orthogonalLoop=1;jettySize=auto;html=1;entryX=0;entryY=0.5;entryDx=0;entryDy=0;exitX=0;exitY=0.5;exitDx=0;exitDy=0;" edge="1" parent="1" source="If4iOhaDxwaOLvHCRaRI-54" target="If4iOhaDxwaOLvHCRaRI-49">
          <mxGeometry relative="1" as="geometry">
            <Array as="points">
              <mxPoint x="-220.11" y="2195" />
              <mxPoint x="-220.11" y="1758" />
            </Array>
          </mxGeometry>
        </mxCell>
        <mxCell id="If4iOhaDxwaOLvHCRaRI-53" value="no" style="edgeLabel;html=1;align=center;verticalAlign=middle;resizable=0;points=[];" vertex="1" connectable="0" parent="If4iOhaDxwaOLvHCRaRI-52">
          <mxGeometry x="-0.8132" y="5" relative="1" as="geometry">
            <mxPoint x="1" as="offset" />
          </mxGeometry>
        </mxCell>
        <mxCell id="If4iOhaDxwaOLvHCRaRI-110" style="edgeStyle=orthogonalEdgeStyle;rounded=0;orthogonalLoop=1;jettySize=auto;html=1;entryX=0;entryY=0.5;entryDx=0;entryDy=0;" edge="1" parent="1" source="If4iOhaDxwaOLvHCRaRI-54" target="If4iOhaDxwaOLvHCRaRI-108">
          <mxGeometry relative="1" as="geometry" />
        </mxCell>
        <mxCell id="If4iOhaDxwaOLvHCRaRI-111" value="yes" style="edgeLabel;html=1;align=center;verticalAlign=middle;resizable=0;points=[];" vertex="1" connectable="0" parent="If4iOhaDxwaOLvHCRaRI-110">
          <mxGeometry x="-0.6393" y="-2" relative="1" as="geometry">
            <mxPoint as="offset" />
          </mxGeometry>
        </mxCell>
        <mxCell id="If4iOhaDxwaOLvHCRaRI-54" value="ball = red?" style="rhombus;whiteSpace=wrap;html=1;fillColor=#0050ef;fontColor=#ffffff;strokeColor=#001DBC;" vertex="1" parent="1">
          <mxGeometry x="-73.86" y="2140" width="132.5" height="110" as="geometry" />
        </mxCell>
        <mxCell id="If4iOhaDxwaOLvHCRaRI-55" style="edgeStyle=orthogonalEdgeStyle;rounded=0;orthogonalLoop=1;jettySize=auto;html=1;entryX=0.5;entryY=0;entryDx=0;entryDy=0;" edge="1" parent="1" source="If4iOhaDxwaOLvHCRaRI-59" target="If4iOhaDxwaOLvHCRaRI-54">
          <mxGeometry relative="1" as="geometry" />
        </mxCell>
        <mxCell id="If4iOhaDxwaOLvHCRaRI-56" value="no" style="edgeLabel;html=1;align=center;verticalAlign=middle;resizable=0;points=[];" vertex="1" connectable="0" parent="If4iOhaDxwaOLvHCRaRI-55">
          <mxGeometry x="-0.4598" relative="1" as="geometry">
            <mxPoint as="offset" />
          </mxGeometry>
        </mxCell>
        <mxCell id="If4iOhaDxwaOLvHCRaRI-109" style="edgeStyle=orthogonalEdgeStyle;rounded=0;orthogonalLoop=1;jettySize=auto;html=1;entryX=0;entryY=0.25;entryDx=0;entryDy=0;" edge="1" parent="1" source="If4iOhaDxwaOLvHCRaRI-59" target="If4iOhaDxwaOLvHCRaRI-108">
          <mxGeometry relative="1" as="geometry">
            <Array as="points">
              <mxPoint x="160" y="1995" />
              <mxPoint x="160" y="2176" />
            </Array>
          </mxGeometry>
        </mxCell>
        <mxCell id="If4iOhaDxwaOLvHCRaRI-112" value="yes" style="edgeLabel;html=1;align=center;verticalAlign=middle;resizable=0;points=[];" vertex="1" connectable="0" parent="If4iOhaDxwaOLvHCRaRI-109">
          <mxGeometry x="-0.7854" y="-2" relative="1" as="geometry">
            <mxPoint as="offset" />
          </mxGeometry>
        </mxCell>
        <mxCell id="If4iOhaDxwaOLvHCRaRI-59" value="team 2 grab 2 balls?" style="rhombus;whiteSpace=wrap;html=1;fillColor=#0050ef;fontColor=#ffffff;strokeColor=#001DBC;" vertex="1" parent="1">
          <mxGeometry x="-66.36" y="1940" width="132.5" height="110" as="geometry" />
        </mxCell>
        <mxCell id="If4iOhaDxwaOLvHCRaRI-60" style="edgeStyle=orthogonalEdgeStyle;rounded=0;orthogonalLoop=1;jettySize=auto;html=1;entryX=0.5;entryY=0;entryDx=0;entryDy=0;" edge="1" parent="1" source="If4iOhaDxwaOLvHCRaRI-61" target="If4iOhaDxwaOLvHCRaRI-59">
          <mxGeometry relative="1" as="geometry" />
        </mxCell>
        <mxCell id="If4iOhaDxwaOLvHCRaRI-61" value="team 2 balls in possession += 1" style="shape=parallelogram;perimeter=parallelogramPerimeter;whiteSpace=wrap;html=1;fixedSize=1;fillColor=#76608a;fontColor=#ffffff;strokeColor=#432D57;" vertex="1" parent="1">
          <mxGeometry x="-110.11" y="1830" width="220" height="60" as="geometry" />
        </mxCell>
        <mxCell id="If4iOhaDxwaOLvHCRaRI-123" style="edgeStyle=orthogonalEdgeStyle;rounded=0;orthogonalLoop=1;jettySize=auto;html=1;entryX=1;entryY=0.5;entryDx=0;entryDy=0;" edge="1" parent="1" source="If4iOhaDxwaOLvHCRaRI-78" target="If4iOhaDxwaOLvHCRaRI-3">
          <mxGeometry relative="1" as="geometry">
            <mxPoint x="990" y="630" as="targetPoint" />
            <Array as="points">
              <mxPoint x="980" y="1730" />
              <mxPoint x="980" y="260" />
            </Array>
          </mxGeometry>
        </mxCell>
        <mxCell id="If4iOhaDxwaOLvHCRaRI-78" value="print team 1 wins!" style="rounded=1;whiteSpace=wrap;html=1;fillColor=#60a917;strokeColor=#2D7600;fontColor=#ffffff;" vertex="1" parent="1">
          <mxGeometry x="820" y="1700" width="120" height="60" as="geometry" />
        </mxCell>
        <mxCell id="If4iOhaDxwaOLvHCRaRI-122" style="edgeStyle=orthogonalEdgeStyle;rounded=0;orthogonalLoop=1;jettySize=auto;html=1;entryX=1;entryY=0.5;entryDx=0;entryDy=0;exitX=0;exitY=0.5;exitDx=0;exitDy=0;" edge="1" parent="1" source="If4iOhaDxwaOLvHCRaRI-79" target="If4iOhaDxwaOLvHCRaRI-3">
          <mxGeometry relative="1" as="geometry">
            <mxPoint x="1010" y="1000" as="targetPoint" />
            <Array as="points">
              <mxPoint x="980" y="1730" />
              <mxPoint x="980" y="260" />
            </Array>
          </mxGeometry>
        </mxCell>
        <mxCell id="If4iOhaDxwaOLvHCRaRI-79" value="print team 2 wins!" style="rounded=1;whiteSpace=wrap;html=1;fillColor=#60a917;fontColor=#ffffff;strokeColor=#2D7600;" vertex="1" parent="1">
          <mxGeometry x="1020" y="1700" width="120" height="60" as="geometry" />
        </mxCell>
        <mxCell id="If4iOhaDxwaOLvHCRaRI-103" style="edgeStyle=orthogonalEdgeStyle;rounded=0;orthogonalLoop=1;jettySize=auto;html=1;entryX=0.5;entryY=0;entryDx=0;entryDy=0;" edge="1" parent="1" source="If4iOhaDxwaOLvHCRaRI-102" target="If4iOhaDxwaOLvHCRaRI-2">
          <mxGeometry relative="1" as="geometry" />
        </mxCell>
        <mxCell id="If4iOhaDxwaOLvHCRaRI-102" value="start" style="ellipse;whiteSpace=wrap;html=1;fillColor=#6d8764;fontColor=#ffffff;strokeColor=#3A5431;" vertex="1" parent="1">
          <mxGeometry x="230" y="-100" width="120" height="80" as="geometry" />
        </mxCell>
        <mxCell id="If4iOhaDxwaOLvHCRaRI-105" value="stop" style="ellipse;whiteSpace=wrap;html=1;fillColor=#f8cecc;strokeColor=#b85450;" vertex="1" parent="1">
          <mxGeometry x="40" y="-100" width="120" height="80" as="geometry" />
        </mxCell>
        <mxCell id="If4iOhaDxwaOLvHCRaRI-113" style="edgeStyle=orthogonalEdgeStyle;rounded=0;orthogonalLoop=1;jettySize=auto;html=1;exitX=1;exitY=0.25;exitDx=0;exitDy=0;entryX=0.5;entryY=1;entryDx=0;entryDy=0;" edge="1" parent="1" source="If4iOhaDxwaOLvHCRaRI-108" target="If4iOhaDxwaOLvHCRaRI-78">
          <mxGeometry relative="1" as="geometry" />
        </mxCell>
        <mxCell id="If4iOhaDxwaOLvHCRaRI-114" value="team 1" style="edgeLabel;html=1;align=center;verticalAlign=middle;resizable=0;points=[];" vertex="1" connectable="0" parent="If4iOhaDxwaOLvHCRaRI-113">
          <mxGeometry x="0.7624" y="-2" relative="1" as="geometry">
            <mxPoint as="offset" />
          </mxGeometry>
        </mxCell>
        <mxCell id="If4iOhaDxwaOLvHCRaRI-115" style="edgeStyle=orthogonalEdgeStyle;rounded=0;orthogonalLoop=1;jettySize=auto;html=1;exitX=1;exitY=0.75;exitDx=0;exitDy=0;entryX=0.5;entryY=1;entryDx=0;entryDy=0;" edge="1" parent="1" source="If4iOhaDxwaOLvHCRaRI-108" target="If4iOhaDxwaOLvHCRaRI-79">
          <mxGeometry relative="1" as="geometry" />
        </mxCell>
        <mxCell id="If4iOhaDxwaOLvHCRaRI-116" value="team 2" style="edgeLabel;html=1;align=center;verticalAlign=middle;resizable=0;points=[];" vertex="1" connectable="0" parent="If4iOhaDxwaOLvHCRaRI-115">
          <mxGeometry x="0.804" y="-3" relative="1" as="geometry">
            <mxPoint y="-1" as="offset" />
          </mxGeometry>
        </mxCell>
        <mxCell id="If4iOhaDxwaOLvHCRaRI-125" style="edgeStyle=orthogonalEdgeStyle;rounded=0;orthogonalLoop=1;jettySize=auto;html=1;exitX=1;exitY=0;exitDx=0;exitDy=0;entryX=1;entryY=0.5;entryDx=0;entryDy=0;" edge="1" parent="1" source="If4iOhaDxwaOLvHCRaRI-108" target="If4iOhaDxwaOLvHCRaRI-19">
          <mxGeometry relative="1" as="geometry">
            <mxPoint x="462" y="1110" as="targetPoint" />
            <Array as="points">
              <mxPoint x="510" y="955" />
            </Array>
          </mxGeometry>
        </mxCell>
        <mxCell id="If4iOhaDxwaOLvHCRaRI-126" value="none" style="edgeLabel;html=1;align=center;verticalAlign=middle;resizable=0;points=[];" vertex="1" connectable="0" parent="If4iOhaDxwaOLvHCRaRI-125">
          <mxGeometry x="-0.4838" y="2" relative="1" as="geometry">
            <mxPoint as="offset" />
          </mxGeometry>
        </mxCell>
        <mxCell id="If4iOhaDxwaOLvHCRaRI-108" value="determining game winner" style="shape=parallelogram;perimeter=parallelogramPerimeter;whiteSpace=wrap;html=1;fixedSize=1;fillColor=#76608a;strokeColor=#432D57;fontColor=#ffffff;" vertex="1" parent="1">
          <mxGeometry x="320" y="2150" width="190" height="90" as="geometry" />
        </mxCell>
        <mxCell id="If4iOhaDxwaOLvHCRaRI-136" style="edgeStyle=orthogonalEdgeStyle;rounded=0;orthogonalLoop=1;jettySize=auto;html=1;entryX=1;entryY=0;entryDx=0;entryDy=0;" edge="1" parent="1" source="If4iOhaDxwaOLvHCRaRI-133" target="If4iOhaDxwaOLvHCRaRI-45">
          <mxGeometry relative="1" as="geometry" />
        </mxCell>
        <mxCell id="If4iOhaDxwaOLvHCRaRI-133" value="incorrect words team 1 += 1" style="shape=parallelogram;perimeter=parallelogramPerimeter;whiteSpace=wrap;html=1;fixedSize=1;fillColor=#76608a;fontColor=#ffffff;strokeColor=#432D57;" vertex="1" parent="1">
          <mxGeometry x="190" y="1145" width="200" height="50" as="geometry" />
        </mxCell>
        <mxCell id="If4iOhaDxwaOLvHCRaRI-141" style="edgeStyle=orthogonalEdgeStyle;rounded=0;orthogonalLoop=1;jettySize=auto;html=1;entryX=0.5;entryY=0;entryDx=0;entryDy=0;" edge="1" parent="1" source="If4iOhaDxwaOLvHCRaRI-137" target="If4iOhaDxwaOLvHCRaRI-108">
          <mxGeometry relative="1" as="geometry" />
        </mxCell>
        <mxCell id="If4iOhaDxwaOLvHCRaRI-137" value="incorrect words team 2 += 1" style="shape=parallelogram;perimeter=parallelogramPerimeter;whiteSpace=wrap;html=1;fixedSize=1;fillColor=#76608a;fontColor=#ffffff;strokeColor=#432D57;" vertex="1" parent="1">
          <mxGeometry x="160" y="1835" width="200" height="50" as="geometry" />
        </mxCell>
      </root>
    </mxGraphModel>
  </diagram>
</mxfile>
